<?xml version="1.0" encoding="UTF-8" ?>
<!DOCTYPE svg PUBLIC "-//W3C//DTD SVG 1.1//EN" "http://www.w3.org/Graphics/SVG/1.1/DTD/svg11.dtd">
<svg width="279pt" height="154pt" viewBox="0 0 279 154" version="1.1" xmlns="http://www.w3.org/2000/svg">
<path fill="#fdfdfd" opacity="1.00" d=" M 0.00 0.00 L 279.00 0.00 L 279.00 154.00 L 0.00 154.00 L 0.00 0.00 M 4.20 16.97 C 4.16 57.30 4.13 97.63 4.21 137.96 C 3.71 144.38 9.46 150.28 15.92 149.75 C 90.61 149.82 165.30 149.73 239.99 149.79 C 242.64 149.77 245.30 149.86 247.95 149.61 C 253.24 149.27 257.88 144.39 257.70 139.04 C 257.83 127.00 257.72 114.96 257.74 102.91 C 263.05 103.18 268.40 103.53 273.68 102.66 C 274.07 100.13 274.39 97.58 274.32 95.02 C 274.14 85.68 274.18 76.33 274.22 66.99 C 274.21 62.13 274.74 57.20 273.67 52.41 C 268.40 51.55 263.04 51.72 257.74 52.12 C 257.72 40.07 257.83 28.01 257.70 15.96 C 257.91 9.83 251.90 5.03 246.02 5.37 C 169.00 5.39 91.98 5.34 14.96 5.39 C 8.83 5.12 3.85 11.04 4.20 16.97 Z" />
<path fill="#404040" opacity="1.00" d=" M 4.20 16.97 C 3.85 11.04 8.83 5.12 14.96 5.39 C 91.98 5.34 169.00 5.39 246.02 5.37 C 251.90 5.03 257.91 9.83 257.70 15.96 C 257.83 28.01 257.72 40.07 257.74 52.12 C 257.69 69.05 257.72 85.98 257.74 102.91 C 257.72 114.96 257.83 127.00 257.70 139.04 C 257.88 144.39 253.24 149.27 247.95 149.61 C 245.30 149.86 242.64 149.77 239.99 149.79 C 165.30 149.73 90.61 149.82 15.92 149.75 C 9.46 150.28 3.71 144.38 4.21 137.96 C 4.13 97.63 4.16 57.30 4.20 16.97 M 21.17 22.19 C 21.04 59.07 21.06 95.95 21.16 132.83 C 94.37 132.93 167.60 132.94 240.81 132.83 C 240.93 95.96 240.90 59.08 240.82 22.20 C 167.60 22.12 94.39 22.15 21.17 22.19 Z" />
<path fill="#fdfdfd" opacity="1.00" d=" M 21.17 22.19 C 94.39 22.15 167.60 22.12 240.82 22.20 C 240.90 59.08 240.93 95.96 240.81 132.83 C 167.60 132.94 94.37 132.93 21.16 132.83 C 21.06 95.95 21.04 59.07 21.17 22.19 M 31.35 31.20 C 29.53 32.06 29.43 34.23 29.43 35.98 C 29.43 63.34 29.46 90.70 29.42 118.06 C 29.54 119.85 29.26 121.95 30.57 123.39 C 31.85 124.98 34.15 124.32 35.92 124.57 C 52.25 124.48 68.59 124.67 84.92 124.47 C 87.84 124.71 88.98 121.44 88.76 119.05 C 88.75 91.35 88.77 63.66 88.74 35.97 C 88.60 34.66 88.87 33.09 87.88 32.05 C 86.65 30.06 84.01 30.76 82.05 30.51 C 66.68 30.52 51.32 30.55 35.95 30.51 C 34.42 30.64 32.73 30.39 31.35 31.20 M 103.29 31.09 C 100.99 32.14 101.40 34.87 101.30 36.94 C 101.35 64.30 101.28 91.67 101.31 119.04 C 101.10 121.40 102.19 124.68 105.09 124.45 C 119.72 124.73 134.36 124.42 149.00 124.57 C 152.14 124.53 155.31 124.76 158.43 124.23 C 160.74 123.09 160.64 120.26 160.68 118.07 C 160.68 91.02 160.62 63.98 160.69 36.94 C 160.58 35.11 160.88 32.91 159.32 31.59 C 157.83 30.40 155.83 30.63 154.05 30.51 C 138.69 30.53 123.32 30.54 107.95 30.51 C 106.40 30.62 104.74 30.41 103.29 31.09 M 175.29 31.07 C 172.86 32.02 173.27 34.84 173.17 36.93 C 173.22 63.98 173.20 91.03 173.19 118.08 C 173.35 119.88 173.02 122.09 174.49 123.46 C 175.55 124.83 177.43 124.37 178.93 124.55 C 193.96 124.58 209.00 124.50 224.03 124.58 C 226.17 124.55 228.33 124.62 230.44 124.24 C 232.19 123.12 232.60 120.95 232.56 119.02 C 232.58 93.68 232.51 68.34 232.58 43.01 C 232.54 39.84 232.79 36.65 232.35 33.50 C 231.77 31.15 229.22 30.40 227.07 30.55 C 211.71 30.46 196.34 30.60 180.97 30.49 C 179.08 30.60 177.08 30.34 175.29 31.07 Z" />
<path fill="#5eb65f" opacity="1.00" d=" M 31.35 31.20 C 32.73 30.39 34.42 30.64 35.95 30.51 C 51.32 30.55 66.68 30.52 82.05 30.51 C 84.01 30.76 86.65 30.06 87.88 32.05 C 88.87 33.09 88.60 34.66 88.74 35.97 C 88.77 63.66 88.75 91.35 88.76 119.05 C 88.98 121.44 87.84 124.71 84.92 124.47 C 68.59 124.67 52.25 124.48 35.92 124.57 C 34.15 124.32 31.85 124.98 30.57 123.39 C 29.26 121.95 29.54 119.85 29.42 118.06 C 29.46 90.70 29.43 63.34 29.43 35.98 C 29.43 34.23 29.53 32.06 31.35 31.20 Z" />
<path fill="#5eb65f" opacity="1.00" d=" M 103.29 31.09 C 104.74 30.41 106.40 30.62 107.95 30.51 C 123.32 30.54 138.69 30.53 154.05 30.51 C 155.83 30.63 157.83 30.40 159.32 31.59 C 160.88 32.91 160.58 35.11 160.69 36.94 C 160.62 63.98 160.68 91.02 160.68 118.07 C 160.64 120.26 160.74 123.09 158.43 124.23 C 155.31 124.76 152.14 124.53 149.00 124.57 C 134.36 124.42 119.72 124.73 105.09 124.45 C 102.19 124.68 101.10 121.40 101.31 119.04 C 101.28 91.67 101.35 64.30 101.30 36.94 C 101.40 34.87 100.99 32.14 103.29 31.09 Z" />
<path fill="#5eb65f" opacity="1.00" d=" M 175.29 31.07 C 177.08 30.34 179.08 30.60 180.97 30.49 C 196.34 30.60 211.71 30.46 227.07 30.55 C 229.22 30.40 231.77 31.15 232.35 33.50 C 232.79 36.65 232.54 39.84 232.58 43.01 C 232.51 68.34 232.58 93.68 232.56 119.02 C 232.60 120.95 232.19 123.12 230.44 124.24 C 228.33 124.62 226.17 124.55 224.03 124.58 C 209.00 124.50 193.96 124.58 178.93 124.55 C 177.43 124.37 175.55 124.83 174.49 123.46 C 173.02 122.09 173.35 119.88 173.19 118.08 C 173.20 91.03 173.22 63.98 173.17 36.93 C 173.27 34.84 172.86 32.02 175.29 31.07 Z" />
<path fill="#8da4ac" opacity="1.00" d=" M 257.74 52.12 C 263.04 51.72 268.40 51.55 273.67 52.41 C 274.74 57.20 274.21 62.13 274.22 66.99 C 274.18 76.33 274.14 85.68 274.32 95.02 C 274.39 97.58 274.07 100.13 273.68 102.66 C 268.40 103.53 263.05 103.18 257.74 102.91 C 257.72 85.98 257.69 69.05 257.74 52.12 Z" />
</svg>
